<svg width="738" height="738" viewBox="0 0 738 738" fill="none" xmlns="http://www.w3.org/2000/svg">
<path fill-rule="evenodd" clip-rule="evenodd" d="M556.89 0.726622H181.554C82.0133 0.726622 0.59375 82.1547 0.59375 181.675V556.981C0.59375 656.508 82.0133 737.933 181.554 737.933H556.89C656.418 737.933 737.85 656.508 737.85 556.981V181.675C737.85 82.1547 656.418 0.726622 556.89 0.726622Z" fill="#1499EB"/>
<path fill-rule="evenodd" clip-rule="evenodd" d="M161.992 493.037C205.809 498.203 260.56 489.107 295.362 461.841C259.106 461.165 228.531 437.221 217.996 404.313C230.411 406.697 243.185 406.22 255.399 402.896C217.956 395.392 186.914 359.755 188.954 320.64C200.115 326.852 212.889 330.584 226.477 331.004C204.235 316.163 189.608 290.799 189.608 262.065C189.608 246.893 193.715 232.672 200.835 220.431C241.692 270.547 302.723 303.505 371.555 306.965C352.153 224.116 455.601 170.611 512.713 231.439C531.581 227.717 549.302 220.819 565.317 211.336C559.116 230.671 545.982 246.893 528.887 257.145C545.648 255.143 561.61 250.699 576.451 244.107C565.37 260.717 551.302 275.303 535.114 286.287C539.248 421.601 430.759 533.272 295.416 533.387C246.012 533.425 200.115 518.561 161.992 493.037Z" fill="white"/>
</svg>
