<svg width="721" height="721" viewBox="0 0 721 721" fill="none" xmlns="http://www.w3.org/2000/svg">
<mask id="mask0_218_16" style="mask-type:alpha" maskUnits="userSpaceOnUse" x="0" y="0" width="721" height="721">
<rect width="721" height="721" fill="#D9D9D9"/>
</mask>
<g mask="url(#mask0_218_16)">
<path fill-rule="evenodd" clip-rule="evenodd" d="M28.0625 558.801C98.3786 567.085 186.251 552.494 242.094 508.737C183.918 507.657 134.84 469.23 117.92 416.424C137.855 420.246 158.358 419.478 177.955 414.148C117.864 402.105 68.0522 344.913 71.3445 282.145C89.2485 292.112 109.739 298.108 131.54 298.78C95.8597 274.954 72.3872 234.253 72.3872 188.144C72.3872 163.801 78.9691 140.98 90.39 121.337C155.946 201.756 253.904 254.646 364.367 260.198C333.231 127.246 499.248 41.3849 590.89 138.993C621.167 133.033 649.601 121.952 675.292 106.733C665.354 137.765 644.287 163.801 616.844 180.246C643.73 177.033 669.358 169.911 693.172 159.33C675.383 185.98 652.816 209.389 626.833 227.018C633.478 444.162 459.373 623.372 242.175 623.554C162.897 623.617 89.2485 599.76 28.0625 558.801Z" fill="#2C2C2C"/>
</g>
</svg>
